<svg width="200" height="60" viewBox="0 0 200 60" fill="none" xmlns="http://www.w3.org/2000/svg">
<path d="M63 14.87C62.28 12.17 60.1499 10.04 57.4399 9.31C52.5399 8 32.88 8 32.88 8C32.88 8 13.23 8 8.31995 9.31C5.61995 10.03 3.48995 12.16 2.75995 14.87C1.44995 19.77 1.44995 30 1.44995 30C1.44995 30 1.44995 40.23 2.75995 45.13C3.47995 47.83 5.60995 49.96 8.31995 50.69C13.23 52 32.88 52 32.88 52C32.88 52 52.5399 52 57.4399 50.69C60.1399 49.97 62.27 47.84 63 45.13C64.31 40.23 64.3099 30 64.3099 30C64.3099 30 64.31 19.77 63 14.87Z" fill="#FF0000"/>
<path d="M26.6 39.4303L42.93 30.0003L26.6 20.5703V39.4303Z" fill="white"/>
<path d="M92.6899 48.0302C91.4499 47.1902 90.5599 45.8902 90.0399 44.1202C89.5199 42.3502 89.2499 40.0002 89.2499 37.0602V33.0602C89.2499 30.0902 89.5499 27.7102 90.1499 25.9102C90.7499 24.1102 91.6899 22.8002 92.9599 21.9802C94.2299 21.1602 95.8999 20.7402 97.9699 20.7402C100.01 20.7402 101.64 21.1602 102.87 22.0002C104.1 22.8402 105 24.1502 105.57 25.9302C106.14 27.7102 106.42 30.0902 106.42 33.0502V37.0502C106.42 39.9902 106.14 42.3502 105.59 44.1302C105.04 45.9102 104.14 47.2202 102.89 48.0402C101.65 48.8602 99.9599 49.2802 97.8299 49.2802C95.6499 49.2902 93.9299 48.8702 92.6899 48.0302ZM99.6599 43.7102C99.9999 42.8102 100.18 41.3402 100.18 39.3102V30.7202C100.18 28.7402 100.01 27.3002 99.6599 26.3802C99.3199 25.4702 98.7099 25.0102 97.8399 25.0102C96.9999 25.0102 96.4099 25.4702 96.0599 26.3802C95.7199 27.2902 95.5399 28.7402 95.5399 30.7202V39.3102C95.5399 41.3502 95.6999 42.8202 96.0299 43.7102C96.3599 44.6102 96.9599 45.0602 97.8299 45.0602C98.7099 45.0602 99.3099 44.6102 99.6599 43.7102Z" fill="white"/>
<path d="M188.16 37.1307V38.5207C188.16 40.2907 188.21 41.6107 188.32 42.5007C188.42 43.3807 188.64 44.0307 188.97 44.4307C189.3 44.8307 189.81 45.0407 190.5 45.0407C191.43 45.0407 192.07 44.6807 192.41 43.9607C192.75 43.2407 192.94 42.0407 192.97 40.3607L198.32 40.6707C198.35 40.9107 198.36 41.2407 198.36 41.6607C198.36 44.2107 197.66 46.1107 196.27 47.3707C194.88 48.6307 192.91 49.2607 190.36 49.2607C187.3 49.2607 185.16 48.3007 183.93 46.3807C182.7 44.4607 182.09 41.5007 182.09 37.4807V32.6707C182.09 28.5307 182.73 25.5207 184 23.6107C185.27 21.7107 187.45 20.7607 190.54 20.7607C192.67 20.7607 194.3 21.1507 195.44 21.9307C196.58 22.7107 197.38 23.9207 197.85 25.5707C198.31 27.2207 198.55 29.5007 198.55 32.4007V37.1207H188.16V37.1307ZM188.95 25.5307C188.64 25.9207 188.43 26.5607 188.32 27.4407C188.21 28.3207 188.16 29.6707 188.16 31.4607V33.4407H192.7V31.4607C192.7 29.6907 192.64 28.3507 192.52 27.4407C192.4 26.5307 192.18 25.8807 191.87 25.5107C191.56 25.1407 191.07 24.9507 190.41 24.9507C189.75 24.9407 189.26 25.1407 188.95 25.5307Z" fill="white"/>
<path d="M77.5899 36.6104L70.5299 11.1204H76.6899L79.1599 22.6704C79.7899 25.5204 80.2499 27.9404 80.5499 29.9504H80.7299C80.9399 28.5104 81.3999 26.1004 82.1199 22.7104L84.6799 11.1104H90.8399L83.6999 36.6104V48.8404H77.5899V36.6104Z" fill="white"/>
<path d="M126.45 21.2803V48.8303H121.6L121.06 45.4603H120.93C119.61 48.0103 117.63 49.2803 115 49.2803C113.17 49.2803 111.82 48.6803 110.95 47.4803C110.08 46.2803 109.65 44.4103 109.65 41.8603V21.2803H115.85V41.5103C115.85 42.7403 115.98 43.6203 116.25 44.1403C116.52 44.6603 116.97 44.9303 117.6 44.9303C118.14 44.9303 118.66 44.7703 119.15 44.4403C119.64 44.1103 120.01 43.6903 120.25 43.1803V21.2803H126.45Z" fill="white"/>
<path d="M158.27 21.2803V48.8303H153.42L152.88 45.4603H152.75C151.43 48.0103 149.45 49.2803 146.82 49.2803C144.99 49.2803 143.64 48.6803 142.77 47.4803C141.9 46.2803 141.47 44.4103 141.47 41.8603V21.2803H147.67V41.5103C147.67 42.7403 147.8 43.6203 148.07 44.1403C148.34 44.6603 148.79 44.9303 149.42 44.9303C149.96 44.9303 150.48 44.7703 150.97 44.4403C151.46 44.1103 151.83 43.6903 152.07 43.1803V21.2803H158.27Z" fill="white"/>
<path d="M143.31 16.1101H137.15V48.8301H131.08V16.1101H124.92V11.1201H143.3V16.1101H143.31Z" fill="white"/>
<path d="M178.8 25.6905C178.42 23.9505 177.82 22.6905 176.98 21.9105C176.14 21.1305 174.99 20.7405 173.52 20.7405C172.38 20.7405 171.32 21.0605 170.33 21.7105C169.34 22.3505 168.58 23.2005 168.04 24.2505H167.99V9.73047H162.01V48.8405H167.13L167.76 46.2305H167.89C168.37 47.1605 169.09 47.8905 170.05 48.4305C171.01 48.9705 172.07 49.2405 173.24 49.2405C175.34 49.2405 176.88 48.2705 177.87 46.3405C178.86 44.4105 179.35 41.3905 179.35 37.2805V32.9205C179.36 29.8405 179.17 27.4305 178.8 25.6905ZM173.11 36.9305C173.11 38.9405 173.03 40.5105 172.86 41.6505C172.7 42.7905 172.42 43.6005 172.03 44.0805C171.64 44.5605 171.12 44.8005 170.46 44.8005C169.95 44.8005 169.48 44.6805 169.04 44.4405C168.61 44.2005 168.25 43.8405 167.98 43.3605V27.7105C168.19 26.9605 168.55 26.3505 169.06 25.8705C169.57 25.3905 170.12 25.1505 170.72 25.1505C171.35 25.1505 171.84 25.4005 172.18 25.8905C172.52 26.3805 172.76 27.2205 172.9 28.3805C173.03 29.5505 173.1 31.2105 173.1 33.3705V36.9305H173.11Z" fill="white"/>
</svg>
